<mxfile host="Electron" modified="2024-01-25T18:43:42.052Z" agent="Mozilla/5.0 (Windows NT 10.0; Win64; x64) AppleWebKit/537.36 (KHTML, like Gecko) draw.io/22.1.21 Chrome/120.0.6099.109 Electron/28.1.0 Safari/537.36" etag="96axguZeD7tUftvCvq7Z" version="22.1.21" type="device">
  <diagram id="C5RBs43oDa-KdzZeNtuy" name="Page-1">
    <mxGraphModel dx="1568" dy="796" grid="0" gridSize="10" guides="1" tooltips="1" connect="1" arrows="1" fold="1" page="1" pageScale="1" pageWidth="827" pageHeight="1169" math="0" shadow="0">
      <root>
        <mxCell id="WIyWlLk6GJQsqaUBKTNV-0" />
        <mxCell id="WIyWlLk6GJQsqaUBKTNV-1" parent="WIyWlLk6GJQsqaUBKTNV-0" />
        <mxCell id="zkfFHV4jXpPFQw0GAbJ--0" value="IRepositoryBase&lt;T&gt;" style="swimlane;fontStyle=1;align=center;verticalAlign=middle;childLayout=stackLayout;horizontal=1;startSize=26;horizontalStack=0;resizeParent=1;resizeLast=0;collapsible=1;marginBottom=0;rounded=1;shadow=0;strokeWidth=2;fillColor=#647687;fontColor=#ffffff;strokeColor=#314354;labelBackgroundColor=none;fontFamily=Tahoma;" parent="WIyWlLk6GJQsqaUBKTNV-1" vertex="1">
          <mxGeometry x="145" y="196" width="180" height="190" as="geometry">
            <mxRectangle x="230" y="140" width="160" height="26" as="alternateBounds" />
          </mxGeometry>
        </mxCell>
        <mxCell id="zkfFHV4jXpPFQw0GAbJ--3" value="..." style="text;align=left;verticalAlign=top;spacingLeft=4;spacingRight=4;overflow=hidden;rotatable=0;points=[[0,0.5],[1,0.5]];portConstraint=eastwest;rounded=0;shadow=0;html=0;fontFamily=Tahoma;fontStyle=0;fontSize=12;" parent="zkfFHV4jXpPFQw0GAbJ--0" vertex="1">
          <mxGeometry y="26" width="180" height="26" as="geometry" />
        </mxCell>
        <mxCell id="zkfFHV4jXpPFQw0GAbJ--4" value="" style="line;html=1;strokeWidth=1;align=left;verticalAlign=middle;spacingTop=-1;spacingLeft=3;spacingRight=3;rotatable=0;labelPosition=right;points=[];portConstraint=eastwest;" parent="zkfFHV4jXpPFQw0GAbJ--0" vertex="1">
          <mxGeometry y="52" width="180" height="8" as="geometry" />
        </mxCell>
        <mxCell id="zkfFHV4jXpPFQw0GAbJ--5" value="FindAll()" style="text;align=left;verticalAlign=top;spacingLeft=4;spacingRight=4;overflow=hidden;rotatable=0;points=[[0,0.5],[1,0.5]];portConstraint=eastwest;fontFamily=Tahoma;fontStyle=0;fontSize=12;" parent="zkfFHV4jXpPFQw0GAbJ--0" vertex="1">
          <mxGeometry y="60" width="180" height="26" as="geometry" />
        </mxCell>
        <mxCell id="LFAoKAUHjmjUwDGcvP34-8" value="FindByCondition(expression)" style="text;align=left;verticalAlign=top;spacingLeft=4;spacingRight=4;overflow=hidden;rotatable=0;points=[[0,0.5],[1,0.5]];portConstraint=eastwest;fontFamily=Tahoma;fontStyle=0;fontSize=12;" vertex="1" parent="zkfFHV4jXpPFQw0GAbJ--0">
          <mxGeometry y="86" width="180" height="26" as="geometry" />
        </mxCell>
        <mxCell id="LFAoKAUHjmjUwDGcvP34-9" value="Create(entity)" style="text;align=left;verticalAlign=top;spacingLeft=4;spacingRight=4;overflow=hidden;rotatable=0;points=[[0,0.5],[1,0.5]];portConstraint=eastwest;fontFamily=Tahoma;fontStyle=0;fontSize=12;" vertex="1" parent="zkfFHV4jXpPFQw0GAbJ--0">
          <mxGeometry y="112" width="180" height="26" as="geometry" />
        </mxCell>
        <mxCell id="LFAoKAUHjmjUwDGcvP34-11" value="Update(entity)" style="text;align=left;verticalAlign=top;spacingLeft=4;spacingRight=4;overflow=hidden;rotatable=0;points=[[0,0.5],[1,0.5]];portConstraint=eastwest;fontFamily=Tahoma;fontStyle=0;fontSize=12;" vertex="1" parent="zkfFHV4jXpPFQw0GAbJ--0">
          <mxGeometry y="138" width="180" height="26" as="geometry" />
        </mxCell>
        <mxCell id="LFAoKAUHjmjUwDGcvP34-10" value="Delete(entity)" style="text;align=left;verticalAlign=top;spacingLeft=4;spacingRight=4;overflow=hidden;rotatable=0;points=[[0,0.5],[1,0.5]];portConstraint=eastwest;fontFamily=Tahoma;fontStyle=0;fontSize=12;" vertex="1" parent="zkfFHV4jXpPFQw0GAbJ--0">
          <mxGeometry y="164" width="180" height="26" as="geometry" />
        </mxCell>
        <mxCell id="LFAoKAUHjmjUwDGcvP34-7" value="Contracts" style="text;html=1;align=center;verticalAlign=middle;resizable=0;points=[];autosize=1;strokeColor=none;fillColor=none;fontSize=20;fontStyle=1" vertex="1" parent="WIyWlLk6GJQsqaUBKTNV-1">
          <mxGeometry x="182" y="85" width="111" height="36" as="geometry" />
        </mxCell>
        <mxCell id="LFAoKAUHjmjUwDGcvP34-30" style="edgeStyle=orthogonalEdgeStyle;shape=connector;curved=0;rounded=1;orthogonalLoop=1;jettySize=auto;html=1;labelBackgroundColor=default;strokeColor=#B09500;strokeWidth=2;align=center;verticalAlign=middle;fontFamily=Helvetica;fontSize=11;fontColor=default;endArrow=block;endFill=1;fillColor=#e3c800;" edge="1" parent="WIyWlLk6GJQsqaUBKTNV-1" source="LFAoKAUHjmjUwDGcvP34-12" target="zkfFHV4jXpPFQw0GAbJ--0">
          <mxGeometry relative="1" as="geometry" />
        </mxCell>
        <mxCell id="LFAoKAUHjmjUwDGcvP34-49" style="edgeStyle=orthogonalEdgeStyle;shape=connector;curved=0;rounded=1;orthogonalLoop=1;jettySize=auto;html=1;labelBackgroundColor=default;strokeColor=#314354;strokeWidth=2;align=center;verticalAlign=middle;fontFamily=Helvetica;fontSize=11;fontColor=default;endArrow=block;endFill=1;fillColor=#647687;dashed=1;" edge="1" parent="WIyWlLk6GJQsqaUBKTNV-1" source="LFAoKAUHjmjUwDGcvP34-12" target="LFAoKAUHjmjUwDGcvP34-40">
          <mxGeometry relative="1" as="geometry" />
        </mxCell>
        <mxCell id="LFAoKAUHjmjUwDGcvP34-12" value="IOwnerRepository" style="swimlane;fontStyle=1;align=center;verticalAlign=middle;childLayout=stackLayout;horizontal=1;startSize=26;horizontalStack=0;resizeParent=1;resizeLast=0;collapsible=1;marginBottom=0;rounded=1;shadow=0;strokeWidth=2;fillColor=#647687;fontColor=#ffffff;strokeColor=#314354;labelBackgroundColor=none;fontFamily=Tahoma;" vertex="1" parent="WIyWlLk6GJQsqaUBKTNV-1">
          <mxGeometry x="34" y="456" width="180" height="190" as="geometry">
            <mxRectangle x="230" y="140" width="160" height="26" as="alternateBounds" />
          </mxGeometry>
        </mxCell>
        <mxCell id="LFAoKAUHjmjUwDGcvP34-13" value="..." style="text;align=left;verticalAlign=top;spacingLeft=4;spacingRight=4;overflow=hidden;rotatable=0;points=[[0,0.5],[1,0.5]];portConstraint=eastwest;rounded=0;shadow=0;html=0;fontFamily=Tahoma;fontStyle=0;fontSize=12;" vertex="1" parent="LFAoKAUHjmjUwDGcvP34-12">
          <mxGeometry y="26" width="180" height="26" as="geometry" />
        </mxCell>
        <mxCell id="LFAoKAUHjmjUwDGcvP34-14" value="" style="line;html=1;strokeWidth=1;align=left;verticalAlign=middle;spacingTop=-1;spacingLeft=3;spacingRight=3;rotatable=0;labelPosition=right;points=[];portConstraint=eastwest;" vertex="1" parent="LFAoKAUHjmjUwDGcvP34-12">
          <mxGeometry y="52" width="180" height="8" as="geometry" />
        </mxCell>
        <mxCell id="LFAoKAUHjmjUwDGcvP34-15" value="FindAll()" style="text;align=left;verticalAlign=top;spacingLeft=4;spacingRight=4;overflow=hidden;rotatable=0;points=[[0,0.5],[1,0.5]];portConstraint=eastwest;fontFamily=Tahoma;fontStyle=0;fontSize=12;fontColor=#808080;" vertex="1" parent="LFAoKAUHjmjUwDGcvP34-12">
          <mxGeometry y="60" width="180" height="26" as="geometry" />
        </mxCell>
        <mxCell id="LFAoKAUHjmjUwDGcvP34-16" value="FindByCondition(expression)" style="text;align=left;verticalAlign=top;spacingLeft=4;spacingRight=4;overflow=hidden;rotatable=0;points=[[0,0.5],[1,0.5]];portConstraint=eastwest;fontFamily=Tahoma;fontStyle=0;fontSize=12;fontColor=#808080;" vertex="1" parent="LFAoKAUHjmjUwDGcvP34-12">
          <mxGeometry y="86" width="180" height="26" as="geometry" />
        </mxCell>
        <mxCell id="LFAoKAUHjmjUwDGcvP34-17" value="Create(entity)" style="text;align=left;verticalAlign=top;spacingLeft=4;spacingRight=4;overflow=hidden;rotatable=0;points=[[0,0.5],[1,0.5]];portConstraint=eastwest;fontFamily=Tahoma;fontStyle=0;fontSize=12;fontColor=#808080;" vertex="1" parent="LFAoKAUHjmjUwDGcvP34-12">
          <mxGeometry y="112" width="180" height="26" as="geometry" />
        </mxCell>
        <mxCell id="LFAoKAUHjmjUwDGcvP34-18" value="Update(entity)" style="text;align=left;verticalAlign=top;spacingLeft=4;spacingRight=4;overflow=hidden;rotatable=0;points=[[0,0.5],[1,0.5]];portConstraint=eastwest;fontFamily=Tahoma;fontStyle=0;fontSize=12;fontColor=#808080;" vertex="1" parent="LFAoKAUHjmjUwDGcvP34-12">
          <mxGeometry y="138" width="180" height="26" as="geometry" />
        </mxCell>
        <mxCell id="LFAoKAUHjmjUwDGcvP34-19" value="Delete(entity)" style="text;align=left;verticalAlign=top;spacingLeft=4;spacingRight=4;overflow=hidden;rotatable=0;points=[[0,0.5],[1,0.5]];portConstraint=eastwest;fontFamily=Tahoma;fontStyle=0;fontSize=12;fontColor=#808080;" vertex="1" parent="LFAoKAUHjmjUwDGcvP34-12">
          <mxGeometry y="164" width="180" height="26" as="geometry" />
        </mxCell>
        <mxCell id="LFAoKAUHjmjUwDGcvP34-29" style="edgeStyle=orthogonalEdgeStyle;rounded=1;orthogonalLoop=1;jettySize=auto;html=1;entryX=0.5;entryY=1;entryDx=0;entryDy=0;fillColor=#e3c800;strokeColor=#B09500;curved=0;strokeWidth=2;endArrow=block;endFill=1;" edge="1" parent="WIyWlLk6GJQsqaUBKTNV-1" source="LFAoKAUHjmjUwDGcvP34-20" target="zkfFHV4jXpPFQw0GAbJ--0">
          <mxGeometry relative="1" as="geometry" />
        </mxCell>
        <mxCell id="LFAoKAUHjmjUwDGcvP34-48" style="edgeStyle=orthogonalEdgeStyle;shape=connector;curved=0;rounded=1;orthogonalLoop=1;jettySize=auto;html=1;labelBackgroundColor=default;strokeColor=#314354;strokeWidth=2;align=center;verticalAlign=middle;fontFamily=Helvetica;fontSize=11;fontColor=default;endArrow=block;endFill=1;fillColor=#647687;dashed=1;" edge="1" parent="WIyWlLk6GJQsqaUBKTNV-1" source="LFAoKAUHjmjUwDGcvP34-20" target="LFAoKAUHjmjUwDGcvP34-47">
          <mxGeometry relative="1" as="geometry" />
        </mxCell>
        <mxCell id="LFAoKAUHjmjUwDGcvP34-20" value="IAccountRepository" style="swimlane;fontStyle=1;align=center;verticalAlign=middle;childLayout=stackLayout;horizontal=1;startSize=26;horizontalStack=0;resizeParent=1;resizeLast=0;collapsible=1;marginBottom=0;rounded=1;shadow=0;strokeWidth=2;fillColor=#647687;fontColor=#ffffff;strokeColor=#314354;labelBackgroundColor=none;fontFamily=Tahoma;" vertex="1" parent="WIyWlLk6GJQsqaUBKTNV-1">
          <mxGeometry x="267" y="456" width="180" height="190" as="geometry">
            <mxRectangle x="230" y="140" width="160" height="26" as="alternateBounds" />
          </mxGeometry>
        </mxCell>
        <mxCell id="LFAoKAUHjmjUwDGcvP34-21" value="..." style="text;align=left;verticalAlign=top;spacingLeft=4;spacingRight=4;overflow=hidden;rotatable=0;points=[[0,0.5],[1,0.5]];portConstraint=eastwest;rounded=0;shadow=0;html=0;fontFamily=Tahoma;fontStyle=0;fontSize=12;" vertex="1" parent="LFAoKAUHjmjUwDGcvP34-20">
          <mxGeometry y="26" width="180" height="26" as="geometry" />
        </mxCell>
        <mxCell id="LFAoKAUHjmjUwDGcvP34-22" value="" style="line;html=1;strokeWidth=1;align=left;verticalAlign=middle;spacingTop=-1;spacingLeft=3;spacingRight=3;rotatable=0;labelPosition=right;points=[];portConstraint=eastwest;" vertex="1" parent="LFAoKAUHjmjUwDGcvP34-20">
          <mxGeometry y="52" width="180" height="8" as="geometry" />
        </mxCell>
        <mxCell id="LFAoKAUHjmjUwDGcvP34-23" value="FindAll()" style="text;align=left;verticalAlign=top;spacingLeft=4;spacingRight=4;overflow=hidden;rotatable=0;points=[[0,0.5],[1,0.5]];portConstraint=eastwest;fontFamily=Tahoma;fontStyle=0;fontSize=12;fontColor=#808080;" vertex="1" parent="LFAoKAUHjmjUwDGcvP34-20">
          <mxGeometry y="60" width="180" height="26" as="geometry" />
        </mxCell>
        <mxCell id="LFAoKAUHjmjUwDGcvP34-24" value="FindByCondition(expression)" style="text;align=left;verticalAlign=top;spacingLeft=4;spacingRight=4;overflow=hidden;rotatable=0;points=[[0,0.5],[1,0.5]];portConstraint=eastwest;fontFamily=Tahoma;fontStyle=0;fontSize=12;fontColor=#808080;" vertex="1" parent="LFAoKAUHjmjUwDGcvP34-20">
          <mxGeometry y="86" width="180" height="26" as="geometry" />
        </mxCell>
        <mxCell id="LFAoKAUHjmjUwDGcvP34-25" value="Create(entity)" style="text;align=left;verticalAlign=top;spacingLeft=4;spacingRight=4;overflow=hidden;rotatable=0;points=[[0,0.5],[1,0.5]];portConstraint=eastwest;fontFamily=Tahoma;fontStyle=0;fontSize=12;fontColor=#808080;" vertex="1" parent="LFAoKAUHjmjUwDGcvP34-20">
          <mxGeometry y="112" width="180" height="26" as="geometry" />
        </mxCell>
        <mxCell id="LFAoKAUHjmjUwDGcvP34-26" value="Update(entity)" style="text;align=left;verticalAlign=top;spacingLeft=4;spacingRight=4;overflow=hidden;rotatable=0;points=[[0,0.5],[1,0.5]];portConstraint=eastwest;fontFamily=Tahoma;fontStyle=0;fontSize=12;fontColor=#808080;" vertex="1" parent="LFAoKAUHjmjUwDGcvP34-20">
          <mxGeometry y="138" width="180" height="26" as="geometry" />
        </mxCell>
        <mxCell id="LFAoKAUHjmjUwDGcvP34-27" value="Delete(entity)" style="text;align=left;verticalAlign=top;spacingLeft=4;spacingRight=4;overflow=hidden;rotatable=0;points=[[0,0.5],[1,0.5]];portConstraint=eastwest;fontFamily=Tahoma;fontStyle=0;fontSize=12;fontColor=#808080;" vertex="1" parent="LFAoKAUHjmjUwDGcvP34-20">
          <mxGeometry y="164" width="180" height="26" as="geometry" />
        </mxCell>
        <mxCell id="LFAoKAUHjmjUwDGcvP34-39" value="IRepositoryWrapper" style="swimlane;fontStyle=1;align=center;verticalAlign=middle;childLayout=stackLayout;horizontal=1;startSize=26;horizontalStack=0;resizeParent=1;resizeLast=0;collapsible=1;marginBottom=0;rounded=1;shadow=0;strokeWidth=2;fillColor=#647687;fontColor=#ffffff;strokeColor=#314354;labelBackgroundColor=none;fontFamily=Tahoma;" vertex="1" parent="WIyWlLk6GJQsqaUBKTNV-1">
          <mxGeometry x="471" y="879" width="229" height="112" as="geometry">
            <mxRectangle x="230" y="140" width="160" height="26" as="alternateBounds" />
          </mxGeometry>
        </mxCell>
        <mxCell id="LFAoKAUHjmjUwDGcvP34-47" value="IAccountRepository&lt;Account&gt; Account" style="text;align=left;verticalAlign=top;spacingLeft=4;spacingRight=4;overflow=hidden;rotatable=0;points=[[0,0.5],[1,0.5]];portConstraint=eastwest;rounded=0;shadow=0;html=0;fontFamily=Tahoma;fontStyle=0;fontSize=12;" vertex="1" parent="LFAoKAUHjmjUwDGcvP34-39">
          <mxGeometry y="26" width="229" height="26" as="geometry" />
        </mxCell>
        <mxCell id="LFAoKAUHjmjUwDGcvP34-40" value="IOwnerRepository&lt;Owner&gt; Owner" style="text;align=left;verticalAlign=top;spacingLeft=4;spacingRight=4;overflow=hidden;rotatable=0;points=[[0,0.5],[1,0.5]];portConstraint=eastwest;rounded=0;shadow=0;html=0;fontFamily=Tahoma;fontStyle=0;fontSize=12;" vertex="1" parent="LFAoKAUHjmjUwDGcvP34-39">
          <mxGeometry y="52" width="229" height="26" as="geometry" />
        </mxCell>
        <mxCell id="LFAoKAUHjmjUwDGcvP34-41" value="" style="line;html=1;strokeWidth=1;align=left;verticalAlign=middle;spacingTop=-1;spacingLeft=3;spacingRight=3;rotatable=0;labelPosition=right;points=[];portConstraint=eastwest;" vertex="1" parent="LFAoKAUHjmjUwDGcvP34-39">
          <mxGeometry y="78" width="229" height="8" as="geometry" />
        </mxCell>
        <mxCell id="LFAoKAUHjmjUwDGcvP34-43" value="Save()" style="text;align=left;verticalAlign=top;spacingLeft=4;spacingRight=4;overflow=hidden;rotatable=0;points=[[0,0.5],[1,0.5]];portConstraint=eastwest;fontFamily=Tahoma;fontStyle=0;fontSize=12;" vertex="1" parent="LFAoKAUHjmjUwDGcvP34-39">
          <mxGeometry y="86" width="229" height="26" as="geometry" />
        </mxCell>
        <mxCell id="LFAoKAUHjmjUwDGcvP34-50" value="Repository" style="text;html=1;align=center;verticalAlign=middle;resizable=0;points=[];autosize=1;strokeColor=none;fillColor=none;fontSize=20;fontStyle=1" vertex="1" parent="WIyWlLk6GJQsqaUBKTNV-1">
          <mxGeometry x="1031" y="78" width="122" height="36" as="geometry" />
        </mxCell>
        <mxCell id="LFAoKAUHjmjUwDGcvP34-59" style="edgeStyle=orthogonalEdgeStyle;shape=connector;curved=0;rounded=1;orthogonalLoop=1;jettySize=auto;html=1;labelBackgroundColor=default;strokeColor=#B09500;strokeWidth=2;align=center;verticalAlign=middle;fontFamily=Helvetica;fontSize=11;fontColor=default;endArrow=block;endFill=1;fillColor=#e3c800;" edge="1" parent="WIyWlLk6GJQsqaUBKTNV-1" source="LFAoKAUHjmjUwDGcvP34-51" target="zkfFHV4jXpPFQw0GAbJ--0">
          <mxGeometry relative="1" as="geometry" />
        </mxCell>
        <mxCell id="LFAoKAUHjmjUwDGcvP34-51" value="RepositoryBase&lt;T&gt;" style="swimlane;fontStyle=1;align=center;verticalAlign=middle;childLayout=stackLayout;horizontal=1;startSize=26;horizontalStack=0;resizeParent=1;resizeLast=0;collapsible=1;marginBottom=0;rounded=1;shadow=0;strokeWidth=2;fillColor=#6d8764;fontColor=#ffffff;strokeColor=#3A5431;labelBackgroundColor=none;fontFamily=Tahoma;" vertex="1" parent="WIyWlLk6GJQsqaUBKTNV-1">
          <mxGeometry x="1008" y="196" width="180" height="190" as="geometry">
            <mxRectangle x="230" y="140" width="160" height="26" as="alternateBounds" />
          </mxGeometry>
        </mxCell>
        <mxCell id="LFAoKAUHjmjUwDGcvP34-52" value="AppDbcontext Appdbcontext" style="text;align=left;verticalAlign=top;spacingLeft=4;spacingRight=4;overflow=hidden;rotatable=0;points=[[0,0.5],[1,0.5]];portConstraint=eastwest;rounded=0;shadow=0;html=0;fontFamily=Tahoma;fontStyle=0;fontSize=12;" vertex="1" parent="LFAoKAUHjmjUwDGcvP34-51">
          <mxGeometry y="26" width="180" height="26" as="geometry" />
        </mxCell>
        <mxCell id="LFAoKAUHjmjUwDGcvP34-53" value="" style="line;html=1;strokeWidth=1;align=left;verticalAlign=middle;spacingTop=-1;spacingLeft=3;spacingRight=3;rotatable=0;labelPosition=right;points=[];portConstraint=eastwest;" vertex="1" parent="LFAoKAUHjmjUwDGcvP34-51">
          <mxGeometry y="52" width="180" height="8" as="geometry" />
        </mxCell>
        <mxCell id="LFAoKAUHjmjUwDGcvP34-54" value="FindAll()" style="text;align=left;verticalAlign=top;spacingLeft=4;spacingRight=4;overflow=hidden;rotatable=0;points=[[0,0.5],[1,0.5]];portConstraint=eastwest;fontFamily=Tahoma;fontStyle=0;fontSize=12;fontColor=#808080;" vertex="1" parent="LFAoKAUHjmjUwDGcvP34-51">
          <mxGeometry y="60" width="180" height="26" as="geometry" />
        </mxCell>
        <mxCell id="LFAoKAUHjmjUwDGcvP34-55" value="FindByCondition(expression)" style="text;align=left;verticalAlign=top;spacingLeft=4;spacingRight=4;overflow=hidden;rotatable=0;points=[[0,0.5],[1,0.5]];portConstraint=eastwest;fontFamily=Tahoma;fontStyle=0;fontSize=12;fontColor=#808080;" vertex="1" parent="LFAoKAUHjmjUwDGcvP34-51">
          <mxGeometry y="86" width="180" height="26" as="geometry" />
        </mxCell>
        <mxCell id="LFAoKAUHjmjUwDGcvP34-56" value="Create(entity)" style="text;align=left;verticalAlign=top;spacingLeft=4;spacingRight=4;overflow=hidden;rotatable=0;points=[[0,0.5],[1,0.5]];portConstraint=eastwest;fontFamily=Tahoma;fontStyle=0;fontSize=12;fontColor=#808080;" vertex="1" parent="LFAoKAUHjmjUwDGcvP34-51">
          <mxGeometry y="112" width="180" height="26" as="geometry" />
        </mxCell>
        <mxCell id="LFAoKAUHjmjUwDGcvP34-57" value="Update(entity)" style="text;align=left;verticalAlign=top;spacingLeft=4;spacingRight=4;overflow=hidden;rotatable=0;points=[[0,0.5],[1,0.5]];portConstraint=eastwest;fontFamily=Tahoma;fontStyle=0;fontSize=12;fontColor=#808080;" vertex="1" parent="LFAoKAUHjmjUwDGcvP34-51">
          <mxGeometry y="138" width="180" height="26" as="geometry" />
        </mxCell>
        <mxCell id="LFAoKAUHjmjUwDGcvP34-58" value="Delete(entity)" style="text;align=left;verticalAlign=top;spacingLeft=4;spacingRight=4;overflow=hidden;rotatable=0;points=[[0,0.5],[1,0.5]];portConstraint=eastwest;fontFamily=Tahoma;fontStyle=0;fontSize=12;fontColor=#808080;" vertex="1" parent="LFAoKAUHjmjUwDGcvP34-51">
          <mxGeometry y="164" width="180" height="26" as="geometry" />
        </mxCell>
        <mxCell id="LFAoKAUHjmjUwDGcvP34-71" style="edgeStyle=orthogonalEdgeStyle;shape=connector;curved=0;rounded=1;orthogonalLoop=1;jettySize=auto;html=1;labelBackgroundColor=default;strokeColor=#B09500;strokeWidth=2;align=center;verticalAlign=middle;fontFamily=Helvetica;fontSize=11;fontColor=default;endArrow=block;endFill=1;fillColor=#e3c800;" edge="1" parent="WIyWlLk6GJQsqaUBKTNV-1" source="LFAoKAUHjmjUwDGcvP34-63" target="LFAoKAUHjmjUwDGcvP34-51">
          <mxGeometry relative="1" as="geometry" />
        </mxCell>
        <mxCell id="LFAoKAUHjmjUwDGcvP34-72" style="edgeStyle=orthogonalEdgeStyle;shape=connector;curved=0;rounded=1;orthogonalLoop=1;jettySize=auto;html=1;labelBackgroundColor=default;strokeColor=#B09500;strokeWidth=2;align=center;verticalAlign=middle;fontFamily=Helvetica;fontSize=11;fontColor=default;endArrow=block;endFill=1;fillColor=#e3c800;" edge="1" parent="WIyWlLk6GJQsqaUBKTNV-1" source="LFAoKAUHjmjUwDGcvP34-63" target="LFAoKAUHjmjUwDGcvP34-20">
          <mxGeometry relative="1" as="geometry" />
        </mxCell>
        <mxCell id="LFAoKAUHjmjUwDGcvP34-100" style="edgeStyle=orthogonalEdgeStyle;shape=connector;curved=0;rounded=1;orthogonalLoop=1;jettySize=auto;html=1;dashed=1;labelBackgroundColor=default;strokeColor=#314354;strokeWidth=2;align=center;verticalAlign=middle;fontFamily=Helvetica;fontSize=11;fontColor=default;endArrow=block;endFill=1;fillColor=#647687;" edge="1" parent="WIyWlLk6GJQsqaUBKTNV-1" source="LFAoKAUHjmjUwDGcvP34-63" target="LFAoKAUHjmjUwDGcvP34-96">
          <mxGeometry relative="1" as="geometry" />
        </mxCell>
        <mxCell id="LFAoKAUHjmjUwDGcvP34-63" value="AccountRepository" style="swimlane;fontStyle=1;align=center;verticalAlign=middle;childLayout=stackLayout;horizontal=1;startSize=26;horizontalStack=0;resizeParent=1;resizeLast=0;collapsible=1;marginBottom=0;rounded=1;shadow=0;strokeWidth=2;fillColor=#6d8764;fontColor=#ffffff;strokeColor=#3A5431;labelBackgroundColor=none;fontFamily=Tahoma;" vertex="1" parent="WIyWlLk6GJQsqaUBKTNV-1">
          <mxGeometry x="878" y="456" width="180" height="190" as="geometry">
            <mxRectangle x="230" y="140" width="160" height="26" as="alternateBounds" />
          </mxGeometry>
        </mxCell>
        <mxCell id="LFAoKAUHjmjUwDGcvP34-64" value="AppDbcontext Appdbcontext" style="text;align=left;verticalAlign=top;spacingLeft=4;spacingRight=4;overflow=hidden;rotatable=0;points=[[0,0.5],[1,0.5]];portConstraint=eastwest;rounded=0;shadow=0;html=0;fontFamily=Tahoma;fontStyle=0;fontSize=12;" vertex="1" parent="LFAoKAUHjmjUwDGcvP34-63">
          <mxGeometry y="26" width="180" height="26" as="geometry" />
        </mxCell>
        <mxCell id="LFAoKAUHjmjUwDGcvP34-65" value="" style="line;html=1;strokeWidth=1;align=left;verticalAlign=middle;spacingTop=-1;spacingLeft=3;spacingRight=3;rotatable=0;labelPosition=right;points=[];portConstraint=eastwest;" vertex="1" parent="LFAoKAUHjmjUwDGcvP34-63">
          <mxGeometry y="52" width="180" height="8" as="geometry" />
        </mxCell>
        <mxCell id="LFAoKAUHjmjUwDGcvP34-66" value="FindAll()" style="text;align=left;verticalAlign=top;spacingLeft=4;spacingRight=4;overflow=hidden;rotatable=0;points=[[0,0.5],[1,0.5]];portConstraint=eastwest;fontFamily=Tahoma;fontStyle=0;fontSize=12;fontColor=#808080;" vertex="1" parent="LFAoKAUHjmjUwDGcvP34-63">
          <mxGeometry y="60" width="180" height="26" as="geometry" />
        </mxCell>
        <mxCell id="LFAoKAUHjmjUwDGcvP34-67" value="FindByCondition(expression)" style="text;align=left;verticalAlign=top;spacingLeft=4;spacingRight=4;overflow=hidden;rotatable=0;points=[[0,0.5],[1,0.5]];portConstraint=eastwest;fontFamily=Tahoma;fontStyle=0;fontSize=12;fontColor=#808080;" vertex="1" parent="LFAoKAUHjmjUwDGcvP34-63">
          <mxGeometry y="86" width="180" height="26" as="geometry" />
        </mxCell>
        <mxCell id="LFAoKAUHjmjUwDGcvP34-68" value="Create(entity)" style="text;align=left;verticalAlign=top;spacingLeft=4;spacingRight=4;overflow=hidden;rotatable=0;points=[[0,0.5],[1,0.5]];portConstraint=eastwest;fontFamily=Tahoma;fontStyle=0;fontSize=12;fontColor=#808080;" vertex="1" parent="LFAoKAUHjmjUwDGcvP34-63">
          <mxGeometry y="112" width="180" height="26" as="geometry" />
        </mxCell>
        <mxCell id="LFAoKAUHjmjUwDGcvP34-69" value="Update(entity)" style="text;align=left;verticalAlign=top;spacingLeft=4;spacingRight=4;overflow=hidden;rotatable=0;points=[[0,0.5],[1,0.5]];portConstraint=eastwest;fontFamily=Tahoma;fontStyle=0;fontSize=12;fontColor=#808080;" vertex="1" parent="LFAoKAUHjmjUwDGcvP34-63">
          <mxGeometry y="138" width="180" height="26" as="geometry" />
        </mxCell>
        <mxCell id="LFAoKAUHjmjUwDGcvP34-70" value="Delete(entity)" style="text;align=left;verticalAlign=top;spacingLeft=4;spacingRight=4;overflow=hidden;rotatable=0;points=[[0,0.5],[1,0.5]];portConstraint=eastwest;fontFamily=Tahoma;fontStyle=0;fontSize=12;fontColor=#808080;" vertex="1" parent="LFAoKAUHjmjUwDGcvP34-63">
          <mxGeometry y="164" width="180" height="26" as="geometry" />
        </mxCell>
        <mxCell id="LFAoKAUHjmjUwDGcvP34-81" style="edgeStyle=orthogonalEdgeStyle;shape=connector;curved=0;rounded=1;orthogonalLoop=1;jettySize=auto;html=1;labelBackgroundColor=default;strokeColor=#B09500;strokeWidth=2;align=center;verticalAlign=middle;fontFamily=Helvetica;fontSize=11;fontColor=default;endArrow=block;endFill=1;fillColor=#e3c800;" edge="1" parent="WIyWlLk6GJQsqaUBKTNV-1" source="LFAoKAUHjmjUwDGcvP34-73" target="LFAoKAUHjmjUwDGcvP34-51">
          <mxGeometry relative="1" as="geometry" />
        </mxCell>
        <mxCell id="LFAoKAUHjmjUwDGcvP34-82" style="edgeStyle=orthogonalEdgeStyle;shape=connector;curved=0;rounded=1;orthogonalLoop=1;jettySize=auto;html=1;labelBackgroundColor=default;strokeColor=#B09500;strokeWidth=2;align=center;verticalAlign=middle;fontFamily=Helvetica;fontSize=11;fontColor=default;endArrow=block;endFill=1;fillColor=#e3c800;" edge="1" parent="WIyWlLk6GJQsqaUBKTNV-1" source="LFAoKAUHjmjUwDGcvP34-73" target="LFAoKAUHjmjUwDGcvP34-12">
          <mxGeometry relative="1" as="geometry">
            <Array as="points">
              <mxPoint x="1249" y="843" />
              <mxPoint x="101" y="843" />
            </Array>
          </mxGeometry>
        </mxCell>
        <mxCell id="LFAoKAUHjmjUwDGcvP34-99" style="edgeStyle=orthogonalEdgeStyle;shape=connector;curved=0;rounded=1;orthogonalLoop=1;jettySize=auto;html=1;dashed=1;labelBackgroundColor=default;strokeColor=#314354;strokeWidth=2;align=center;verticalAlign=middle;fontFamily=Helvetica;fontSize=11;fontColor=default;endArrow=block;endFill=1;fillColor=#647687;" edge="1" parent="WIyWlLk6GJQsqaUBKTNV-1" source="LFAoKAUHjmjUwDGcvP34-73" target="LFAoKAUHjmjUwDGcvP34-95">
          <mxGeometry relative="1" as="geometry">
            <Array as="points">
              <mxPoint x="1390" y="551" />
              <mxPoint x="1390" y="993" />
            </Array>
          </mxGeometry>
        </mxCell>
        <mxCell id="LFAoKAUHjmjUwDGcvP34-73" value="OwnerRepository" style="swimlane;fontStyle=1;align=center;verticalAlign=middle;childLayout=stackLayout;horizontal=1;startSize=26;horizontalStack=0;resizeParent=1;resizeLast=0;collapsible=1;marginBottom=0;rounded=1;shadow=0;strokeWidth=2;fillColor=#6d8764;fontColor=#ffffff;strokeColor=#3A5431;labelBackgroundColor=none;fontFamily=Tahoma;" vertex="1" parent="WIyWlLk6GJQsqaUBKTNV-1">
          <mxGeometry x="1159" y="456" width="180" height="190" as="geometry">
            <mxRectangle x="230" y="140" width="160" height="26" as="alternateBounds" />
          </mxGeometry>
        </mxCell>
        <mxCell id="LFAoKAUHjmjUwDGcvP34-74" value="AppDbcontext Appdbcontext" style="text;align=left;verticalAlign=top;spacingLeft=4;spacingRight=4;overflow=hidden;rotatable=0;points=[[0,0.5],[1,0.5]];portConstraint=eastwest;rounded=0;shadow=0;html=0;fontFamily=Tahoma;fontStyle=0;fontSize=12;" vertex="1" parent="LFAoKAUHjmjUwDGcvP34-73">
          <mxGeometry y="26" width="180" height="26" as="geometry" />
        </mxCell>
        <mxCell id="LFAoKAUHjmjUwDGcvP34-75" value="" style="line;html=1;strokeWidth=1;align=left;verticalAlign=middle;spacingTop=-1;spacingLeft=3;spacingRight=3;rotatable=0;labelPosition=right;points=[];portConstraint=eastwest;" vertex="1" parent="LFAoKAUHjmjUwDGcvP34-73">
          <mxGeometry y="52" width="180" height="8" as="geometry" />
        </mxCell>
        <mxCell id="LFAoKAUHjmjUwDGcvP34-76" value="FindAll()" style="text;align=left;verticalAlign=top;spacingLeft=4;spacingRight=4;overflow=hidden;rotatable=0;points=[[0,0.5],[1,0.5]];portConstraint=eastwest;fontFamily=Tahoma;fontStyle=0;fontSize=12;fontColor=#808080;" vertex="1" parent="LFAoKAUHjmjUwDGcvP34-73">
          <mxGeometry y="60" width="180" height="26" as="geometry" />
        </mxCell>
        <mxCell id="LFAoKAUHjmjUwDGcvP34-77" value="FindByCondition(expression)" style="text;align=left;verticalAlign=top;spacingLeft=4;spacingRight=4;overflow=hidden;rotatable=0;points=[[0,0.5],[1,0.5]];portConstraint=eastwest;fontFamily=Tahoma;fontStyle=0;fontSize=12;fontColor=#808080;" vertex="1" parent="LFAoKAUHjmjUwDGcvP34-73">
          <mxGeometry y="86" width="180" height="26" as="geometry" />
        </mxCell>
        <mxCell id="LFAoKAUHjmjUwDGcvP34-78" value="Create(entity)" style="text;align=left;verticalAlign=top;spacingLeft=4;spacingRight=4;overflow=hidden;rotatable=0;points=[[0,0.5],[1,0.5]];portConstraint=eastwest;fontFamily=Tahoma;fontStyle=0;fontSize=12;fontColor=#808080;" vertex="1" parent="LFAoKAUHjmjUwDGcvP34-73">
          <mxGeometry y="112" width="180" height="26" as="geometry" />
        </mxCell>
        <mxCell id="LFAoKAUHjmjUwDGcvP34-79" value="Update(entity)" style="text;align=left;verticalAlign=top;spacingLeft=4;spacingRight=4;overflow=hidden;rotatable=0;points=[[0,0.5],[1,0.5]];portConstraint=eastwest;fontFamily=Tahoma;fontStyle=0;fontSize=12;fontColor=#808080;" vertex="1" parent="LFAoKAUHjmjUwDGcvP34-73">
          <mxGeometry y="138" width="180" height="26" as="geometry" />
        </mxCell>
        <mxCell id="LFAoKAUHjmjUwDGcvP34-80" value="Delete(entity)" style="text;align=left;verticalAlign=top;spacingLeft=4;spacingRight=4;overflow=hidden;rotatable=0;points=[[0,0.5],[1,0.5]];portConstraint=eastwest;fontFamily=Tahoma;fontStyle=0;fontSize=12;fontColor=#808080;" vertex="1" parent="LFAoKAUHjmjUwDGcvP34-73">
          <mxGeometry y="164" width="180" height="26" as="geometry" />
        </mxCell>
        <mxCell id="LFAoKAUHjmjUwDGcvP34-83" value="..." style="text;align=left;verticalAlign=top;spacingLeft=4;spacingRight=4;overflow=hidden;rotatable=0;points=[[0,0.5],[1,0.5]];portConstraint=eastwest;rounded=0;shadow=0;html=0;fontFamily=Tahoma;fontStyle=0;fontSize=12;" vertex="1" parent="WIyWlLk6GJQsqaUBKTNV-1">
          <mxGeometry x="286" y="535" width="180" height="26" as="geometry" />
        </mxCell>
        <mxCell id="LFAoKAUHjmjUwDGcvP34-92" style="edgeStyle=orthogonalEdgeStyle;shape=connector;curved=0;rounded=1;orthogonalLoop=1;jettySize=auto;html=1;labelBackgroundColor=default;strokeColor=#B09500;strokeWidth=2;align=center;verticalAlign=middle;fontFamily=Helvetica;fontSize=11;fontColor=default;endArrow=block;endFill=1;fillColor=#e3c800;" edge="1" parent="WIyWlLk6GJQsqaUBKTNV-1" source="LFAoKAUHjmjUwDGcvP34-84" target="LFAoKAUHjmjUwDGcvP34-39">
          <mxGeometry relative="1" as="geometry" />
        </mxCell>
        <mxCell id="LFAoKAUHjmjUwDGcvP34-84" value="RepositoryWrapper" style="swimlane;fontStyle=1;align=center;verticalAlign=middle;childLayout=stackLayout;horizontal=1;startSize=26;horizontalStack=0;resizeParent=1;resizeLast=0;collapsible=1;marginBottom=0;rounded=1;shadow=0;strokeWidth=2;fillColor=#6d8764;fontColor=#ffffff;strokeColor=#3A5431;labelBackgroundColor=none;fontFamily=Tahoma;" vertex="1" parent="WIyWlLk6GJQsqaUBKTNV-1">
          <mxGeometry x="1016" y="876" width="180" height="320" as="geometry">
            <mxRectangle x="230" y="140" width="160" height="26" as="alternateBounds" />
          </mxGeometry>
        </mxCell>
        <mxCell id="LFAoKAUHjmjUwDGcvP34-85" value="_repocontext" style="text;align=left;verticalAlign=top;spacingLeft=4;spacingRight=4;overflow=hidden;rotatable=0;points=[[0,0.5],[1,0.5]];portConstraint=eastwest;rounded=0;shadow=0;html=0;fontFamily=Tahoma;fontStyle=0;fontSize=12;" vertex="1" parent="LFAoKAUHjmjUwDGcvP34-84">
          <mxGeometry y="26" width="180" height="26" as="geometry" />
        </mxCell>
        <mxCell id="LFAoKAUHjmjUwDGcvP34-93" value="_owner" style="text;align=left;verticalAlign=top;spacingLeft=4;spacingRight=4;overflow=hidden;rotatable=0;points=[[0,0.5],[1,0.5]];portConstraint=eastwest;rounded=0;shadow=0;html=0;fontFamily=Tahoma;fontStyle=0;fontSize=12;" vertex="1" parent="LFAoKAUHjmjUwDGcvP34-84">
          <mxGeometry y="52" width="180" height="26" as="geometry" />
        </mxCell>
        <mxCell id="LFAoKAUHjmjUwDGcvP34-94" value="_account" style="text;align=left;verticalAlign=top;spacingLeft=4;spacingRight=4;overflow=hidden;rotatable=0;points=[[0,0.5],[1,0.5]];portConstraint=eastwest;rounded=0;shadow=0;html=0;fontFamily=Tahoma;fontStyle=0;fontSize=12;" vertex="1" parent="LFAoKAUHjmjUwDGcvP34-84">
          <mxGeometry y="78" width="180" height="26" as="geometry" />
        </mxCell>
        <mxCell id="LFAoKAUHjmjUwDGcvP34-95" value="Owner" style="text;align=left;verticalAlign=top;spacingLeft=4;spacingRight=4;overflow=hidden;rotatable=0;points=[[0,0.5],[1,0.5]];portConstraint=eastwest;rounded=0;shadow=0;html=0;fontFamily=Tahoma;fontStyle=0;fontSize=12;" vertex="1" parent="LFAoKAUHjmjUwDGcvP34-84">
          <mxGeometry y="104" width="180" height="26" as="geometry" />
        </mxCell>
        <mxCell id="LFAoKAUHjmjUwDGcvP34-96" value="Account" style="text;align=left;verticalAlign=top;spacingLeft=4;spacingRight=4;overflow=hidden;rotatable=0;points=[[0,0.5],[1,0.5]];portConstraint=eastwest;rounded=0;shadow=0;html=0;fontFamily=Tahoma;fontStyle=0;fontSize=12;" vertex="1" parent="LFAoKAUHjmjUwDGcvP34-84">
          <mxGeometry y="130" width="180" height="26" as="geometry" />
        </mxCell>
        <mxCell id="LFAoKAUHjmjUwDGcvP34-86" value="" style="line;html=1;strokeWidth=1;align=left;verticalAlign=middle;spacingTop=-1;spacingLeft=3;spacingRight=3;rotatable=0;labelPosition=right;points=[];portConstraint=eastwest;" vertex="1" parent="LFAoKAUHjmjUwDGcvP34-84">
          <mxGeometry y="156" width="180" height="8" as="geometry" />
        </mxCell>
        <mxCell id="LFAoKAUHjmjUwDGcvP34-87" value="Save()" style="text;align=left;verticalAlign=top;spacingLeft=4;spacingRight=4;overflow=hidden;rotatable=0;points=[[0,0.5],[1,0.5]];portConstraint=eastwest;fontFamily=Tahoma;fontStyle=0;fontSize=12;fontColor=#808080;" vertex="1" parent="LFAoKAUHjmjUwDGcvP34-84">
          <mxGeometry y="164" width="180" height="26" as="geometry" />
        </mxCell>
        <mxCell id="LFAoKAUHjmjUwDGcvP34-88" value="FindByCondition(expression)" style="text;align=left;verticalAlign=top;spacingLeft=4;spacingRight=4;overflow=hidden;rotatable=0;points=[[0,0.5],[1,0.5]];portConstraint=eastwest;fontFamily=Tahoma;fontStyle=0;fontSize=12;fontColor=#808080;" vertex="1" parent="LFAoKAUHjmjUwDGcvP34-84">
          <mxGeometry y="190" width="180" height="26" as="geometry" />
        </mxCell>
        <mxCell id="LFAoKAUHjmjUwDGcvP34-89" value="Create(entity)" style="text;align=left;verticalAlign=top;spacingLeft=4;spacingRight=4;overflow=hidden;rotatable=0;points=[[0,0.5],[1,0.5]];portConstraint=eastwest;fontFamily=Tahoma;fontStyle=0;fontSize=12;fontColor=#808080;" vertex="1" parent="LFAoKAUHjmjUwDGcvP34-84">
          <mxGeometry y="216" width="180" height="26" as="geometry" />
        </mxCell>
        <mxCell id="LFAoKAUHjmjUwDGcvP34-90" value="Update(entity)" style="text;align=left;verticalAlign=top;spacingLeft=4;spacingRight=4;overflow=hidden;rotatable=0;points=[[0,0.5],[1,0.5]];portConstraint=eastwest;fontFamily=Tahoma;fontStyle=0;fontSize=12;fontColor=#808080;" vertex="1" parent="LFAoKAUHjmjUwDGcvP34-84">
          <mxGeometry y="242" width="180" height="26" as="geometry" />
        </mxCell>
        <mxCell id="LFAoKAUHjmjUwDGcvP34-91" value="Delete(entity)" style="text;align=left;verticalAlign=top;spacingLeft=4;spacingRight=4;overflow=hidden;rotatable=0;points=[[0,0.5],[1,0.5]];portConstraint=eastwest;fontFamily=Tahoma;fontStyle=0;fontSize=12;fontColor=#808080;" vertex="1" parent="LFAoKAUHjmjUwDGcvP34-84">
          <mxGeometry y="268" width="180" height="26" as="geometry" />
        </mxCell>
      </root>
    </mxGraphModel>
  </diagram>
</mxfile>
